# xmcd
#
# Track frame offsets:
#	150
#	15653
#	30175
#	46024
#	61123
#	76686
#	88991
#	105591
#	119914
#	132915
#	147559
#	163513
#	177850
#	194313
#	208647
#
# Disc length: 3021 seconds
#
# Revision: 4
# Processed by: cddbd v1.5.1PL0 Copyright (c) Steve Scherf et al.
# Submitted via: audiograbber 1.83.01
#
DISCID=c30bcb0f
DTITLE=1996-12 Country Radio - 1996-12 Country Radio
DYEAR=1996
DGENRE=Country
TTITLE0=Travis Tritt - Where Corn Don't Grow
TTITLE1=Thrasher Shiver - Be Honest
TTITLE2=Brooks and Dunn - A Man This Lonely
TTITLE3=Deana Carter - We Danced Anyway
TTITLE4=Paul Brandt - I Meant To Do That
TTITLE5=Jo Dee Messina - Do You Wanna Make Something Of It
TTITLE6=Clint Black - Halfway Up
TTITLE7=Cledus T Judd - Grandpa Got Runned Over By A John Deere
TTITLE8=Neal Mccoy - That Woman Of Mine
TTITLE9=Ty England - All Of The Above
TTITLE10=David Ball - I'll Never Make It Through This Fall
TTITLE11=BR5-49 - Even If It's Wrong
TTITLE12=John Berry - She's Taken A Shine
TTITLE13=Diamond Rio - Holdin'
TTITLE14=Stevens Sisters - What About Me
EXTD=
EXTT0=
EXTT1=
EXTT2=
EXTT3=
EXTT4=
EXTT5=
EXTT6=
EXTT7=
EXTT8=
EXTT9=
EXTT10=
EXTT11=
EXTT12=
EXTT13=
EXTT14=
PLAYORDER=
